<?xml version="1.0" standalone="no"?>
<!DOCTYPE svg PUBLIC "-//W3C//DTD SVG 20010904//EN"
 "http://www.w3.org/TR/2001/REC-SVG-20010904/DTD/svg10.dtd">
<svg version="1.0" xmlns="http://www.w3.org/2000/svg"
 width="1024.000000pt" height="1024.000000pt" preserveAspectRatio="xMidYMid meet">

<g transform="translate(0.000000,1024.000000) scale(0.100000,-0.100000)"
fill="#CDEF4F" stroke="none">
<path d="M20 10224 c0 -8 -4 -13 -9 -9 -6 3 -10 -1989 -11 -5105 l-1 -5110
5121 0 5120 0 0 5120 0 5120 -5110 0 c-4622 0 -5110 -1 -5110 -16z m5461
-2419 c246 -37 473 -151 708 -354 137 -118 284 -330 351 -503 40 -103 83 -294
76 -333 -4 -18 -3 -25 3 -17 12 20 21 -46 21 -170 0 -101 -1 -108 -20 -108
-13 0 -20 7 -20 20 0 13 -7 20 -18 20 -20 0 -25 -15 -67 -210 -42 -191 -91
-306 -198 -460 -129 -184 -301 -336 -488 -430 -34 -17 -59 -34 -56 -36 8 -8
177 86 241 134 33 24 64 45 70 46 6 2 29 7 51 13 22 6 54 14 70 18 l30 6 -40
-41 c-138 -144 -426 -297 -667 -355 -161 -39 -283 -49 -418 -36 -187 19 -323
57 -480 136 -228 114 -363 213 -488 357 -149 172 -240 329 -301 518 -41 129
-50 171 -61 313 -14 165 0 289 50 461 86 293 221 490 493 719 118 99 379 231
524 263 213 47 442 58 634 29z m-2276 -1247 c23 -59 49 -85 106 -103 l49 -17
-62 -58 c-66 -63 -64 -55 -42 -155 l7 -29 -53 42 c-29 23 -57 42 -63 42 -5 0
-32 -16 -58 -35 -27 -19 -49 -31 -49 -27 0 5 7 31 15 58 8 27 15 54 15 61 0 7
-27 34 -59 60 l-60 48 61 12 c78 16 100 31 134 93 15 27 30 50 35 50 4 0 14
-19 24 -42z m4081 10 c30 -60 65 -87 136 -109 37 -11 68 -21 68 -23 0 -1 -27
-22 -60 -46 -33 -24 -62 -51 -65 -61 -3 -10 1 -34 10 -54 20 -50 20 -51 -17
-23 -18 13 -38 27 -44 31 -6 4 -38 -10 -70 -31 -33 -21 -64 -41 -71 -45 -9 -6
-8 4 2 34 26 74 21 96 -37 149 -56 52 -56 54 15 64 52 7 61 16 86 86 12 33 24
60 26 60 3 0 12 -15 21 -32z m-749 -440 c-3 -7 -5 -2 -5 12 0 14 2 19 5 13 2
-7 2 -19 0 -25z m-57 -222 c0 -3 -4 -8 -10 -11 -5 -3 -10 -1 -10 4 0 6 5 11
10 11 6 0 10 -2 10 -4z m21 -89 c-10 -9 -11 -8 -5 6 3 10 9 15 12 12 3 -3 0
-11 -7 -18z m-250 -360 c-10 -9 -11 -8 -5 6 3 10 9 15 12 12 3 -3 0 -11 -7
-18z m565 -735 c20 -13 156 -175 225 -267 100 -136 100 -136 97 -29 -2 49 -2
134 0 189 l2 100 55 0 55 0 0 -76 c0 -42 -3 -178 -7 -302 l-6 -227 -28 0 c-32
0 -80 50 -205 215 -46 61 -94 123 -107 139 l-23 29 0 -44 c0 -24 -1 -109 -2
-189 l-2 -145 -57 -3 -56 -3 6 158 c3 87 2 217 -2 288 -8 156 -6 175 23 175
11 0 26 -4 32 -8z m-4096 -32 c28 -32 166 -215 199 -263 l33 -49 18 39 c10 21
37 61 61 90 24 28 72 87 107 131 58 73 66 80 98 79 l34 -1 0 -300 0 -301 -61
-3 -61 -2 3 107 c1 60 2 144 1 188 -2 79 -2 80 -18 50 -8 -16 -28 -43 -43 -60
-16 -16 -55 -70 -86 -118 -32 -49 -61 -85 -65 -80 -9 10 -159 234 -186 280 -9
13 -10 -29 -6 -176 l5 -194 -24 6 c-13 4 -41 7 -61 7 l-38 0 0 299 0 300 38
-6 c20 -3 44 -13 52 -23z m878 -566 c-2 -1 -28 -4 -58 -5 l-55 -3 -3 296 -2
297 57 3 58 3 3 -294 c1 -162 1 -295 0 -297z m1152 531 l0 -65 -145 0 -145 0
0 -62 0 -63 127 0 128 0 0 -50 0 -50 -127 -3 -128 -3 0 -28 c0 -16 3 -43 6
-61 l7 -32 137 5 138 6 6 -31 c3 -17 6 -46 6 -64 l0 -34 -205 0 -205 0 -2 113
c0 61 -2 195 -2 296 l-1 183 70 -5 c57 -4 323 5 333 11 1 1 2 -27 2 -63z m445
54 c34 -10 121 -46 134 -56 2 -1 -7 -12 -21 -23 -14 -10 -31 -33 -38 -50 -15
-36 -15 -36 -47 -10 -32 25 -81 34 -138 26 -44 -7 -45 -8 -45 -45 0 -49 13
-60 92 -72 78 -12 159 -50 193 -90 60 -72 13 -198 -93 -247 -74 -34 -174 -29
-250 13 -75 41 -78 46 -46 95 15 22 30 39 33 37 108 -60 242 -61 257 -1 10 38
-19 60 -100 79 -88 19 -153 51 -179 86 -26 37 -33 108 -14 145 55 104 148 144
262 113z m725 -54 l0 -65 -90 0 -90 0 0 -235 0 -235 -55 0 -55 0 0 235 0 235
-79 0 -79 0 -4 60 -3 60 220 3 c121 1 223 3 228 5 4 1 7 -27 7 -63z m-1997
-82 c4 -75 7 -181 7 -236 l0 -100 130 7 130 7 0 -65 0 -66 -107 0 c-60 0 -145
3 -190 7 l-83 6 0 288 0 289 53 0 54 0 6 -137z m2508 109 c121 -63 181 -226
133 -365 -22 -65 -91 -139 -156 -167 -74 -33 -139 -32 -210 3 -196 96 -233
339 -73 485 62 57 96 70 186 71 55 1 76 -4 120 -27z m1439 -32 l0 -60 -160 0
-160 0 0 -60 0 -60 130 0 130 0 0 -55 0 -55 -125 0 -125 0 0 -60 0 -61 148 2
147 1 3 -61 3 -61 -206 0 -205 0 0 258 c0 141 -3 274 -6 295 l-7 37 217 0 216
0 0 -60z m-2612 -887 c-10 -2 -26 -2 -35 0 -10 3 -2 5 17 5 19 0 27 -2 18 -5z
m-1817 -60 c30 -30 -4 -33 -377 -33 -363 0 -374 1 -374 19 0 11 8 22 18 25 36
11 721 1 733 -11z m4292 11 c20 -4 37 -9 37 -13 -1 -26 -31 -29 -392 -36
l-378 -7 0 25 c0 16 7 27 18 30 26 7 672 8 715 1z m-3244 -90 c2 -2 -7 -4 -22
-4 -14 0 -29 5 -32 10 -6 10 42 4 54 -6z m900 -1169 c161 -38 331 -172 404
-318 54 -106 72 -263 47 -398 -16 -88 -80 -205 -157 -287 -78 -83 -152 -130
-267 -169 -70 -24 -95 -28 -186 -27 -133 1 -214 23 -307 80 -126 78 -218 200
-270 354 -26 79 -26 293 1 369 52 150 163 274 311 347 50 25 110 48 135 53 73
14 220 12 289 -4z m780 -606 c-15 -14 -39 -33 -52 -42 -24 -15 -25 -15 -20 3
3 11 -2 31 -10 44 -15 22 -15 25 3 41 11 10 20 24 20 31 0 9 17 1 43 -19 l43
-32 -27 -26z m-1748 31 c17 0 9 -19 -11 -25 -11 -3 -23 -17 -26 -31 -8 -32
-17 -31 -64 12 -44 40 -50 54 -20 54 10 0 24 9 30 20 10 19 11 19 47 -5 19
-14 40 -25 44 -25z m100 -795 c19 -24 39 -43 44 -41 6 1 19 19 30 39 32 58 45
48 45 -35 0 -40 3 -83 6 -95 5 -17 2 -23 -11 -23 -13 0 -15 6 -11 28 3 15 2
40 -2 56 l-8 30 -24 -34 -24 -33 -33 38 -33 38 0 -61 c0 -62 -12 -82 -24 -39
-9 35 -7 177 3 177 5 0 24 -20 42 -45z m355 -40 l1 -79 34 0 c24 -1 35 -6 37
-18 3 -15 -4 -18 -47 -18 l-51 0 0 101 c0 76 3 100 13 97 8 -3 12 -30 13 -83z
m-119 12 c3 -76 -5 -130 -18 -122 -15 10 -12 185 4 185 8 0 13 -21 14 -63z
m343 53 c0 -11 -7 -14 -52 -24 -19 -4 -28 -13 -28 -26 0 -17 7 -20 40 -20 22
0 40 -4 40 -10 0 -5 -9 -10 -19 -10 -35 0 -51 -12 -51 -36 0 -21 4 -24 40 -24
30 0 40 -4 40 -16 0 -12 -10 -14 -47 -12 l-48 3 -3 93 -3 92 46 0 c25 0 45 -5
45 -10z m168 -11 c2 -13 -3 -15 -23 -12 -20 4 -25 1 -25 -16 0 -13 6 -21 18
-21 29 0 62 -29 62 -55 0 -26 -42 -65 -71 -65 -19 0 -49 25 -49 41 0 6 7 6 19
-1 11 -5 31 -10 45 -10 39 0 32 27 -14 50 -36 19 -40 24 -40 59 0 22 6 42 13
45 23 10 62 1 65 -15z m190 -3 c2 -11 -4 -16 -21 -16 -25 0 -25 -1 -20 -59 3
-33 2 -68 -3 -78 -5 -12 -10 5 -14 56 -5 53 -11 76 -23 83 -9 5 -17 15 -17 22
0 21 94 13 98 -8z m208 -8 c39 -42 9 -132 -51 -153 -24 -8 -30 -6 -51 20 -33
41 -41 88 -20 121 30 45 88 51 122 12z m165 -30 l47 -53 10 55 10 55 1 -92 c0
-51 -2 -93 -7 -93 -4 0 -16 17 -27 37 -11 20 -32 52 -47 70 l-26 34 -7 -30
c-3 -17 -3 -51 1 -77 5 -37 4 -46 -7 -42 -16 5 -20 188 -4 188 6 0 31 -24 56
-52z m254 43 c-6 -5 -23 -11 -40 -13 -23 -2 -31 -9 -33 -27 -3 -22 -2 -23 38
-16 37 6 41 5 38 -11 -2 -14 -14 -20 -41 -22 -32 -3 -37 -7 -37 -28 0 -21 4
-24 40 -24 25 0 40 -5 40 -12 0 -9 -15 -12 -50 -10 l-50 4 0 84 0 84 52 0 c32
0 48 -4 43 -9z"/>
<path d="M5085 7704 c-102 -16 -251 -49 -315 -71 -272 -93 -517 -287 -687
-545 -80 -121 -103 -172 -149 -328 l-37 -125 -1 -195 c0 -223 10 -279 73 -439
72 -183 217 -402 334 -504 192 -168 451 -302 665 -343 424 -81 852 51 1174
364 185 180 308 404 363 663 50 233 16 513 -93 764 -85 196 -222 367 -401 499
-125 93 -173 120 -303 170 -181 71 -258 87 -438 91 -85 2 -168 1 -185 -1z
m356 -129 c402 -70 747 -360 895 -752 38 -99 74 -292 74 -392 0 -77 -21 -258
-36 -303 -5 -17 -46 -18 -685 -18 l-679 0 0 179 0 178 38 7 c20 3 101 6 180 6
138 0 142 -1 132 -19 -28 -53 7 -115 75 -132 25 -6 170 -7 378 -3 375 8 362 4
310 73 -15 20 -76 87 -135 149 -59 62 -108 117 -108 122 0 4 11 21 24 37 39
47 188 246 192 257 4 11 -69 11 -392 3 l-102 -2 -5 52 c-7 66 -8 68 -70 101
-52 27 -53 27 -255 27 -176 0 -201 2 -196 15 28 69 10 143 -46 194 -83 75
-168 71 -252 -14 -43 -42 -48 -52 -48 -92 0 -62 42 -142 91 -175 l39 -26 -1
-473 c-1 -382 -3 -472 -14 -468 -7 3 -190 6 -406 7 l-394 2 -23 110 c-19 92
-22 132 -19 250 4 126 8 153 41 264 47 159 84 232 193 385 46 63 213 215 283
256 203 118 348 170 570 204 66 9 276 5 351 -9z m-493 -311 c26 -18 28 -41 6
-72 -13 -19 -24 -22 -57 -20 -39 3 -42 5 -45 35 -2 22 3 37 19 52 27 25 47 26
77 5z m250 -253 c-43 -4 -80 -10 -84 -14 -11 -11 6 -57 21 -57 12 0 14 -7 9
-27 -8 -32 -8 -36 4 -84 5 -21 6 -43 1 -50 -4 -7 -3 -19 2 -25 7 -8 2 -27 -13
-58 -27 -56 -20 -65 52 -67 26 -1 6 -5 -46 -9 -50 -4 -101 -11 -114 -15 l-22
-7 4 206 3 205 40 4 c22 2 81 4 130 4 l90 0 -77 -6z m652 -155 c0 -3 -4 -8
-10 -11 -5 -3 -10 -1 -10 4 0 6 5 11 10 11 6 0 10 -2 10 -4z m-177 -23 c-7 -2
-21 -2 -30 0 -10 3 -4 5 12 5 17 0 24 -2 18 -5z m-36 -150 c-3 -10 -5 -4 -5
12 0 17 2 24 5 18 2 -7 2 -21 0 -30z m10 -120 c-2 -16 -4 -5 -4 22 0 28 2 40
4 28 2 -13 2 -35 0 -50z m-37 -88 c-13 -14 -26 -22 -29 -19 -3 3 5 14 18 25
33 27 39 24 11 -6z m-1112 -495 l347 0 0 -75 1 -75 -312 0 c-172 0 -319 -2
-326 -5 -9 -4 -26 18 -51 67 -41 80 -46 104 -21 94 9 -3 172 -6 362 -6z m1472
-10 c11 -7 4 -10 -27 -10 l-41 0 -4 -50 c-3 -47 -1 -51 22 -56 14 -3 30 -7 35
-9 6 -2 -89 -4 -211 -4 -121 -1 -336 -4 -477 -8 l-257 -6 0 76 0 77 473 0
c287 0 478 -4 487 -10z m-1120 -345 l0 -75 -207 0 -207 0 -68 67 c-38 37 -68
71 -68 75 0 5 124 8 275 8 l275 0 0 -75z m945 64 c-71 -3 -149 -7 -173 -8
l-43 -1 6 -43 c6 -36 3 -45 -17 -62 -21 -19 -41 -20 -292 -24 l-269 -4 6 24
c4 13 7 48 7 77 l0 52 453 -2 c314 -1 412 -4 322 -9z m303 4 c-10 -2 -28 -2
-40 0 -13 2 -5 4 17 4 22 1 32 -1 23 -4z m-511 -139 c-3 -3 -12 -4 -19 -1 -8
3 -5 6 6 6 11 1 17 -2 13 -5z m-736 -175 l-3 -51 -34 7 c-55 10 -188 77 -172
86 7 5 58 9 113 9 l100 0 -4 -51z m674 34 c-33 -2 -111 -7 -173 -12 -104 -8
-115 -11 -138 -36 -18 -20 -23 -32 -18 -53 4 -15 12 -30 18 -34 6 -4 -33 -8
-86 -8 -86 0 -98 2 -99 18 0 9 -4 43 -8 75 l-7 57 285 -2 c158 -1 259 -3 226
-5z"/>
<path d="M6048 5313 c7 -3 16 -2 19 1 4 3 -2 6 -13 5 -11 0 -14 -3 -6 -6z"/>
<path d="M5995 5280 c-3 -5 1 -10 10 -10 9 0 13 5 10 10 -3 6 -8 10 -10 10 -2
0 -7 -4 -10 -10z"/>
<path d="M6209 4570 c-50 -26 -60 -41 -66 -103 -8 -79 3 -123 42 -166 62 -69
154 -75 225 -15 44 38 63 80 62 141 0 63 -23 108 -72 140 -43 30 -138 31 -191
3z"/>
<path d="M5082 2404 c-93 -25 -180 -81 -267 -175 -66 -71 -89 -109 -113 -194
-32 -110 -35 -153 -18 -256 23 -133 69 -224 161 -314 82 -81 136 -111 249
-136 142 -32 248 -23 384 32 66 28 89 45 162 118 124 124 170 230 170 389 0
148 -57 281 -166 389 -119 118 -235 163 -414 162 -52 0 -119 -7 -148 -15z
m324 -65 c73 -23 166 -82 221 -142 77 -83 127 -234 121 -366 l-3 -66 -285 0
-285 1 -3 72 c-3 83 -4 82 83 85 58 2 58 2 67 -30 5 -18 13 -33 18 -33 6 0 75
-2 155 -5 144 -6 145 -6 145 16 0 12 -16 39 -35 60 -19 22 -35 46 -35 53 0 8
18 36 40 61 22 25 40 49 40 51 0 3 -45 2 -99 -1 l-99 -7 -7 40 c-10 60 -39 75
-151 80 -91 4 -92 5 -97 32 -13 64 -70 79 -118 31 -34 -34 -36 -59 -10 -93 17
-21 20 -45 23 -219 l3 -194 -172 0 -172 0 -7 30 c-18 79 2 218 44 300 60 118
237 248 362 266 74 10 182 1 256 -22z m-221 -119 c8 -13 -39 -34 -59 -27 -20
8 -20 21 0 41 16 16 45 9 59 -14z m75 -89 c-49 -10 -58 -17 -69 -54 l-9 -32
-1 38 c-1 43 18 56 79 55 l35 0 -35 -7z m-53 -127 c-3 -3 -12 -4 -19 -1 -8 3
-5 6 6 6 11 1 17 -2 13 -5z m-111 -320 c-3 -9 -6 -20 -6 -25 0 -6 -63 -8 -157
-7 -155 3 -158 3 -161 26 l-3 22 166 0 c148 0 166 -2 161 -16z m404 7 c0 -4
39 -11 87 -15 126 -9 130 -26 7 -26 -54 0 -170 -3 -256 -7 l-158 -6 0 31 0 32
160 0 c88 0 160 -4 160 -9z m-400 -131 l0 -30 -125 0 c-113 0 -125 2 -135 19
-20 39 -14 41 125 41 l135 0 0 -30z m303 20 c70 -5 135 -13 143 -18 21 -12
-101 -22 -258 -22 l-118 0 0 25 c0 24 3 25 53 25 28 0 109 -5 180 -10z m-311
-140 c-3 -21 -10 -30 -23 -30 -28 0 -112 30 -129 46 -12 12 -3 14 71 14 l86 0
-5 -30z m386 15 c14 -12 -204 -55 -279 -55 -25 0 -29 4 -29 28 0 16 3 32 7 36
6 6 293 -3 301 -9z"/>
<path d="M5572 1078 c-15 -15 -16 -72 -2 -99 26 -47 100 -9 100 52 0 47 -66
79 -98 47z"/>
</g>
</svg>
