<svg version="1.2" xmlns="http://www.w3.org/2000/svg" viewBox="0 0 1024 1024" width="1024" height="1024">
	<title>milestoneDark-svg</title>
	<style>
		.s0 { fill: #1a1a1a } 
	</style>
	<rect width="1024" height="1024" style="fill: #cdef4f"/>
	<g>
		<path fill-rule="evenodd" class="s0" d="m513 0h511v1024h-1024.1l0.1-511c0.1-311.6 0.5-510.8 1.1-510.5 0.5 0.4 0.9-0.1 0.9-0.9 0-1.5 48.8-1.6 511-1.6zm-28.3 246.4c-14.5 3.2-40.6 16.4-52.4 26.3-27.2 22.9-40.7 42.6-49.3 71.9-5 17.2-6.4 29.6-5 46.1 1.1 14.2 2 18.4 6.1 31.3 6.1 18.9 15.2 34.6 30.1 51.8 12.5 14.4 26 24.3 48.8 35.7 15.7 7.9 29.3 11.7 48 13.6 13.5 1.3 25.7 0.3 41.8-3.6 24.1-5.8 52.9-21.1 66.7-35.5l4-4.1-3 0.6c-1.6 0.4-4.8 1.2-7 1.8-2.2 0.6-4.5 1.1-5.1 1.3-0.6 0.1-3.7 2.2-7 4.6-6.4 4.8-23.3 14.2-24.1 13.4-0.3-0.2 2.2-1.9 5.6-3.6 18.7-9.4 35.9-24.6 48.8-43 10.7-15.4 15.6-26.9 19.8-46 4.2-19.5 4.7-21 6.7-21 1.1 0 1.8 0.7 1.8 2 0 1.3 0.7 2 2 2 1.9 0 2-0.7 2-10.8 0-12.4-0.9-19-2.1-17-0.6 0.8-0.7 0.1-0.3-1.7 0.7-3.9-3.6-23-7.6-33.3-6.7-17.3-21.4-38.5-35.1-50.3-23.5-20.3-46.2-31.7-70.8-35.4-19.2-2.9-42.1-1.8-63.4 2.9zm-166.6 117.6c-0.5 0-2 2.3-3.5 5-3.4 6.2-5.6 7.7-13.4 9.3l-6.1 1.2 6 4.8c3.2 2.6 5.9 5.3 5.9 6 0 0.7-0.7 3.4-1.5 6.1-0.8 2.7-1.5 5.3-1.5 5.8 0 0.4 2.2-0.8 4.9-2.7 2.6-1.9 5.3-3.5 5.8-3.5 0.6 0 3.4 1.9 6.3 4.2l5.3 4.2-0.7-2.9c-2.2-10-2.4-9.2 4.2-15.5l6.2-5.8-4.9-1.7c-5.7-1.8-8.3-4.4-10.6-10.3-1-2.3-2-4.2-2.4-4.2zm408.4 0c-0.2 0-1.4 2.7-2.6 6-2.5 7-3.4 7.9-8.6 8.6-7.1 1-7.1 1.2-1.5 6.4 5.8 5.3 6.3 7.5 3.7 14.9-1 3-1.1 4-0.2 3.4 0.7-0.4 3.8-2.4 7.1-4.5 3.2-2.1 6.4-3.5 7-3.1 0.6 0.4 2.6 1.8 4.4 3.1 3.7 2.8 3.7 2.7 1.7-2.3-0.9-2-1.3-4.4-1-5.4 0.3-1 3.2-3.7 6.5-6.1 3.3-2.4 6-4.5 6-4.6 0-0.2-3.1-1.2-6.8-2.3-7.1-2.2-10.6-4.9-13.6-10.9-0.9-1.7-1.8-3.2-2.1-3.2zm-72.8 44.7c-0.3-0.6-0.5-0.1-0.5 1.3 0 1.4 0.2 1.9 0.5 1.2 0.2-0.6 0.2-1.8 0-2.5zm-6.7 24.3c-0.5 0-1 0.5-1 1.1 0 0.5 0.5 0.7 1 0.4 0.6-0.3 1-0.8 1-1.1 0-0.2-0.4-0.4-1-0.4zm3.8 7.5c-0.3-0.3-0.9 0.2-1.2 1.2-0.6 1.4-0.5 1.5 0.5 0.6 0.7-0.7 1-1.5 0.7-1.8zm-25 36c-0.3-0.3-0.9 0.2-1.2 1.2-0.6 1.4-0.5 1.5 0.5 0.6 0.7-0.7 1-1.5 0.7-1.8zm52.6 74.5c-2.9 0-3.1 1.9-2.3 17.5 0.4 7.1 0.5 20.1 0.2 28.8l-0.6 15.8 5.6-0.3 5.7-0.3 0.2-14.5c0.1-8 0.2-16.5 0.2-18.9v-4.4l2.3 2.9c1.3 1.6 6.1 7.8 10.7 13.9 12.5 16.5 17.3 21.5 20.5 21.5h2.8l0.6-22.7c0.4-12.4 0.7-26 0.7-30.2v-7.6h-11l-0.2 10c-0.2 5.5-0.2 14 0 18.9 0.3 10.7 0.3 10.7-9.7-2.9-6.9-9.2-20.5-25.4-22.5-26.7-0.6-0.4-2.1-0.8-3.2-0.8zm-411.6 1.7l-3.8-0.6v59.9h3.8c2 0 4.8 0.3 6.1 0.7l2.4 0.6-0.5-19.4c-0.4-14.7-0.3-18.9 0.6-17.6 2.7 4.6 17.7 27 18.6 28 0.4 0.5 3.3-3.1 6.5-8 3.1-4.8 7-10.2 8.6-11.8 1.5-1.7 3.5-4.4 4.3-6 1.6-3 1.6-2.9 1.8 5 0.1 4.4 0 12.8-0.1 18.8l-0.3 10.7 6.1-0.2 6.1-0.3v-60.1l-3.4-0.1c-3.2-0.1-4 0.6-9.8 7.9-3.5 4.4-8.3 10.3-10.7 13.1-2.4 2.9-5.1 6.9-6.1 9l-1.8 3.9-3.3-4.9c-3.3-4.8-17.1-23.1-19.9-26.3-0.8-1-3.2-2-5.2-2.3zm93 29.2l-0.3-29.4-5.8 0.3-5.7 0.3 0.2 29.7 0.3 29.6 5.5-0.3c3-0.1 5.6-0.4 5.8-0.5 0.1-0.2 0.1-13.5 0-29.7zm115-29.7c-1 0.6-27.6 1.5-33.3 1.1l-7-0.5 0.1 18.3c0 10.1 0.2 23.5 0.2 29.6l0.2 11.3h41v-3.4c0-1.8-0.3-4.7-0.6-6.4l-0.6-3.1-13.8 0.6-13.7 0.5-0.7-3.2c-0.3-1.8-0.6-4.5-0.6-6.1v-2.8l12.8-0.3 12.7-0.3v-10h-25.5v-12.5h29v-6.5c0-3.6-0.1-6.4-0.2-6.3zm18.5 12.2c-1.9 3.7-1.2 10.8 1.4 14.5 2.6 3.5 9.1 6.7 17.9 8.6 8.1 1.9 11 4.1 10 7.9-1.5 6-14.9 5.9-25.7-0.1-0.3-0.2-1.8 1.5-3.3 3.7-3.2 4.9-2.9 5.4 4.6 9.5 7.6 4.2 17.6 4.7 25 1.3 10.6-4.9 15.3-17.5 9.3-24.7-3.4-4-11.5-7.8-19.3-9-7.9-1.2-9.2-2.3-9.2-7.2 0-3.7 0.1-3.8 4.5-4.5 5.7-0.8 10.6 0.1 13.8 2.6 3.2 2.6 3.2 2.6 4.7-1 0.7-1.7 2.4-4 3.8-5 1.4-1.1 2.3-2.2 2.1-2.3-1.3-1-10-4.6-13.4-5.6-11.4-3.1-20.7 0.9-26.2 11.3zm98-12.2c-0.5 0.2-10.7 0.4-22.8 0.5l-22 0.3 0.3 6 0.4 6h15.8v47h11v-47h18v-6.5c0-3.6-0.3-6.4-0.7-6.3zm-199.6 0.8h-10.7v57.7l8.3 0.6c4.5 0.4 13 0.7 19 0.7h10.7v-13.1l-26 1.4v-10c0-5.5-0.3-16.1-0.7-23.6zm239.4 0.1c-9 0.1-12.4 1.4-18.6 7.1-16 14.6-12.3 38.9 7.3 48.5 7.1 3.5 13.6 3.6 21 0.3 6.5-2.8 13.4-10.2 15.6-16.7 4.8-13.9-1.2-30.2-13.3-36.5-4.4-2.3-6.5-2.8-12-2.7zm155.9-0.1h-43.3l0.7 3.7c0.3 2.1 0.6 15.4 0.6 29.5v25.8h41.1l-0.6-12.2-14.7 0.1-14.8 0.2v-12.1h25v-11h-26v-12h32zm-263 94.2c-1.9 0-2.7 0.2-1.7 0.5 0.9 0.2 2.5 0.2 3.5 0 0.9-0.3 0.1-0.5-1.8-0.5zm-253.2 5.4c-1 0.3-1.8 1.4-1.8 2.5 0 1.8 1.1 1.9 37.4 1.9 37.3 0 40.7-0.3 37.7-3.3-1.2-1.2-69.7-2.2-73.3-1.1zm431 0.1c-1.1 0.3-1.8 1.4-1.8 3v2.5l37.8-0.7c36.1-0.7 39.1-1 39.2-3.6 0-0.4-1.7-0.9-3.7-1.3-4.3-0.7-68.9-0.6-71.5 0.1zm-258.3 8.3c0.3 0.5 1.8 1 3.2 1 1.5 0 2.4-0.2 2.2-0.4-1.2-1-6-1.6-5.4-0.6zm66.5 117.1c-2.5 0.5-8.5 2.8-13.5 5.3-14.8 7.3-25.9 19.7-31.1 34.7-2.7 7.6-2.7 29-0.1 36.9 5.2 15.4 14.4 27.6 27 35.4 9.3 5.7 17.4 7.9 30.7 8 9.1 0.1 11.6-0.3 18.6-2.7 11.5-3.9 18.9-8.6 26.7-16.9 7.7-8.2 14.1-19.9 15.7-28.7 2.5-13.5 0.7-29.2-4.7-39.8-7.3-14.6-24.3-28-40.4-31.8-6.9-1.6-21.6-1.8-28.9-0.4zm109.6 58.4l-4.3-3.2c-2.6-2-4.3-2.8-4.3-1.9 0 0.7-0.9 2.1-2 3.1-1.8 1.6-1.8 1.9-0.3 4.1 0.8 1.3 1.3 3.3 1 4.4-0.5 1.8-0.4 1.8 2 0.3 1.3-0.9 3.7-2.8 5.2-4.2zm-181.9-3c-3.6-2.4-3.7-2.4-4.7-0.5-0.6 1.1-2 2-3 2-3 0-2.4 1.4 2 5.4 4.7 4.3 5.6 4.4 6.4 1.2 0.3-1.4 1.5-2.8 2.6-3.1 2-0.6 2.8-2.5 1.1-2.5-0.4 0-2.5-1.1-4.4-2.5zm10.2 77.5c-1 0-1.2 14.2-0.3 17.7 1.2 4.3 2.4 2.3 2.4-3.9v-6.1l6.6 7.6 2.4-3.3 2.4-3.4 0.8 3c0.4 1.6 0.5 4.1 0.2 5.6-0.4 2.2-0.2 2.8 1.1 2.8 1.3 0 1.6-0.6 1.1-2.3-0.3-1.2-0.6-5.5-0.6-9.5 0-8.3-1.3-9.3-4.5-3.5-1.1 2-2.4 3.8-3 3.9-0.5 0.2-2.5-1.7-4.4-4.1-1.8-2.5-3.7-4.5-4.2-4.5zm38.4 0.2c-1-0.3-1.3 2.1-1.3 9.7v10.1h5.1c4.3 0 5-0.3 4.7-1.8-0.2-1.2-1.3-1.7-3.7-1.8h-3.4l-0.1-7.9c-0.1-5.3-0.5-8-1.3-8.3zm-12 0.8c-1.6 0-1.9 17.5-0.4 18.5 1.3 0.8 2.1-4.6 1.8-12.2-0.1-4.2-0.6-6.3-1.4-6.3zm31.2 0h-4.6l0.3 9.2 0.3 9.3 4.8 0.3c3.7 0.2 4.7 0 4.7-1.2 0-1.2-1-1.6-4-1.6-3.6 0-4-0.3-4-2.4 0-2.4 1.6-3.6 5.1-3.6 1 0 1.9-0.5 1.9-1 0-0.6-1.8-1-4-1-3.3 0-4-0.3-4-2 0-1.3 0.9-2.2 2.8-2.6 4.5-1 5.2-1.3 5.2-2.4 0-0.5-2-1-4.5-1zm14.8 0.6c-0.7 0.3-1.3 2.3-1.3 4.5 0 3.5 0.4 4 4 5.9 4.6 2.3 5.3 5 1.4 5-1.4 0-3.4-0.5-4.5-1-1.2-0.7-1.9-0.7-1.9-0.1 0 1.6 3 4.1 4.9 4.1 2.9 0 7.1-3.9 7.1-6.5 0-2.6-3.3-5.5-6.2-5.5-1.2 0-1.8-0.8-1.8-2.1 0-1.7 0.5-2 2.5-1.6 2 0.3 2.5 0.1 2.3-1.2-0.3-1.6-4.2-2.5-6.5-1.5zm15.7 1c0 0.7 0.8 1.7 1.7 2.2 1.2 0.7 1.8 3 2.3 8.3 0.4 5.1 0.9 6.8 1.4 5.6 0.5-1 0.6-4.5 0.3-7.8-0.5-5.8-0.5-5.9 2-5.9 1.7 0 2.3-0.5 2.1-1.6-0.4-2.1-9.8-2.9-9.8-0.8zm18.4 2.8c-2.1 3.3-1.3 8 2 12.1 2.1 2.6 2.7 2.8 5.1 2 6-2.1 9-11.1 5.1-15.3-3.4-3.9-9.2-3.3-12.2 1.2zm23.1-3.4c-1.6 0-1.2 18.3 0.4 18.8 1.1 0.4 1.2-0.5 0.7-4.2-0.4-2.6-0.4-6-0.1-7.7l0.7-3 2.6 3.4c1.5 1.8 3.6 5 4.7 7 1.1 2 2.3 3.7 2.7 3.7 0.5 0 0.7-4.2 0.7-9.3l-0.1-9.2-2 11-4.7-5.3c-2.5-2.8-5-5.2-5.6-5.2zm26.7 0h-5.2v16.8l5 0.4c3.5 0.2 5-0.1 5-1 0-0.7-1.5-1.2-4-1.2-3.6 0-4-0.3-4-2.4 0-2.1 0.5-2.5 3.7-2.8 2.7-0.2 3.9-0.8 4.1-2.2 0.3-1.6-0.1-1.7-3.8-1.1-4 0.7-4.1 0.6-3.8-1.6 0.2-1.8 1-2.5 3.3-2.7 1.7-0.2 3.4-0.8 4-1.3 0.5-0.5-1.1-0.9-4.3-0.9z"/>
		<path fill-rule="evenodd" class="s0" d="m527 253.5c18 0.4 25.7 2 43.8 9.1 13 5 17.8 7.7 30.3 17 17.9 13.2 31.6 30.3 40.1 49.9 10.9 25.1 14.3 53.1 9.3 76.4-5.5 25.9-17.8 48.3-36.3 66.3-32.2 31.3-75 44.5-117.4 36.4-21.4-4.1-47.3-17.5-66.5-34.3-11.7-10.2-26.2-32.1-33.4-50.4-6.3-16-7.3-21.6-7.3-43.9l0.1-19.5 3.7-12.5c4.6-15.6 6.9-20.7 14.9-32.8 17-25.8 41.5-45.2 68.7-54.5 6.4-2.2 21.3-5.5 31.5-7.1 1.7-0.2 10-0.3 18.5-0.1zm-18 12.1c-22.2 3.4-36.7 8.6-57 20.4-7 4.1-23.7 19.3-28.3 25.6-10.9 15.3-14.6 22.6-19.3 38.5-3.3 11.1-3.7 13.8-4.1 26.4-0.3 11.8 0 15.8 1.9 25l2.3 11 39.4 0.2c21.6 0.1 39.9 0.4 40.6 0.7 1.1 0.4 1.3-8.6 1.4-46.8l0.1-47.3-3.9-2.6c-4.9-3.3-9.1-11.3-9.1-17.5 0-4 0.5-5 4.8-9.2 8.4-8.5 16.9-8.9 25.2-1.4 5.6 5.1 7.4 12.5 4.6 19.4-0.5 1.3 2 1.5 19.6 1.5 20.2 0 20.3 0 25.5 2.7 6.2 3.3 6.3 3.5 7 10.1l0.5 5.2 10.2-0.2c32.3-0.8 39.6-0.8 39.2 0.3-0.4 1.1-15.3 21-19.2 25.7-1.3 1.6-2.4 3.3-2.4 3.7 0 0.5 4.9 6 10.8 12.2 5.9 6.2 12 12.9 13.5 14.9 5.2 6.9 6.5 6.5-31 7.3-20.8 0.4-35.3 0.3-37.8-0.3-6.8-1.7-10.3-7.9-7.5-13.2 1-1.8 0.6-1.9-13.2-1.9-7.9 0-16 0.3-18 0.6l-3.8 0.7v35.7h67.9c63.9 0 68-0.1 68.5-1.8 1.5-4.5 3.6-22.6 3.6-30.3 0-10-3.6-29.3-7.4-39.2-14.8-39.2-49.3-68.2-89.5-75.2-7.5-1.4-28.5-1.8-35.1-0.9zm-21.9 32.5c-1.6 1.5-2.1 3-1.9 5.2 0.3 3 0.6 3.2 4.5 3.5 3.3 0.2 4.4-0.1 5.7-2 2.2-3.1 2-5.4-0.6-7.2-3-2.1-5-2-7.7 0.5zm40.4 24.2h-9c-4.9 0-10.8 0.2-13 0.4l-4 0.4-0.3 20.5-0.4 20.6 2.2-0.7c1.3-0.4 6.4-1.1 11.4-1.5 5.2-0.4 7.2-0.8 4.6-0.9-7.2-0.2-7.9-1.1-5.2-6.7 1.5-3.1 2-5 1.3-5.8-0.5-0.6-0.6-1.8-0.2-2.5 0.5-0.7 0.4-2.9-0.1-5-1.2-4.8-1.2-5.2-0.4-8.4 0.5-2 0.3-2.7-0.9-2.7-1.5 0-3.2-4.6-2.1-5.7 0.4-0.4 4.1-1 8.4-1.4zm56.5 15.7c-0.5 0-1 0.5-1 1.1 0 0.5 0.5 0.7 1 0.4 0.6-0.3 1-0.8 1-1.1 0-0.2-0.4-0.4-1-0.4zm-18.5 2.2c-1.6 0-2.2 0.2-1.2 0.5 0.9 0.2 2.3 0.2 3 0 0.6-0.3-0.1-0.5-1.8-0.5zm-1.8 12.5c-0.3-0.6-0.5 0.1-0.5 1.8 0 1.6 0.2 2.2 0.5 1.2 0.2-0.9 0.2-2.3 0-3zm1 10c-0.2-1.2-0.4 0-0.4 2.8 0 2.7 0.2 3.8 0.4 2.2 0.2-1.5 0.2-3.7 0-5zm-4.8 13.2c-1.3 1.1-2.1 2.2-1.8 2.5 0.3 0.3 1.6-0.5 2.9-1.9 2.8-3 2.2-3.3-1.1-0.6zm-146.3 49.5c-2.5-1-2 1.4 2.1 9.4 2.5 4.9 4.2 7.1 5.1 6.7 0.7-0.3 15.4-0.5 32.6-0.5h31.2l-0.1-7.5v-7.5h-34.7c-19 0-35.3-0.3-36.2-0.6zm134.7 0.6h-47.3v15.3l25.7-0.6c14.1-0.4 35.6-0.7 47.7-0.8 12.2 0 21.7-0.2 21.1-0.4-0.5-0.2-2.1-0.6-3.5-0.9-2.3-0.5-2.5-0.9-2.2-5.6l0.4-5h4.1c3.1 0 3.8-0.3 2.7-1-0.9-0.6-20-1-48.7-1zm-63.3 28h-27.5c-15.1 0-27.5 0.3-27.5 0.8 0 0.4 3 3.8 6.8 7.5l6.8 6.7h41.4zm62.3 0.2l-45.3-0.2v5.2c0 2.9-0.3 6.4-0.7 7.7l-0.6 2.4 26.9-0.4c25.1-0.4 27.1-0.5 29.2-2.4 2-1.7 2.3-2.6 1.7-6.2l-0.6-4.3 4.3-0.1c2.4-0.1 10.2-0.5 17.3-0.8 9-0.5-0.8-0.8-32.2-0.9zm60.2 0.1c-2.2 0-3 0.2-1.7 0.4 1.2 0.2 3 0.2 4 0 0.9-0.3-0.1-0.5-2.3-0.4zm-50.1 13.8c-1.1 0-1.4 0.3-0.6 0.6 0.7 0.3 1.6 0.2 1.9-0.1 0.4-0.3-0.2-0.6-1.3-0.5zm-71.9 12.9h-10c-5.5 0-10.6 0.4-11.3 0.9-1.6 0.9 11.7 7.6 17.2 8.6l3.4 0.7 0.3-5.1zm44.4 1.2l-28.5-0.2 0.7 5.7c0.4 3.2 0.8 6.6 0.8 7.5 0.1 1.6 1.3 1.8 9.9 1.8 5.3 0 9.2-0.4 8.6-0.8-0.6-0.4-1.4-1.9-1.8-3.4-0.5-2.1 0-3.3 1.8-5.3 2.3-2.5 3.4-2.8 13.8-3.6 6.2-0.5 14-1 17.3-1.2 3.3-0.2-6.8-0.4-22.6-0.5z"/>
		<path class="s0" d="m604.8 492.7c0.7 0.3 1.6 0.2 1.9-0.1 0.4-0.3-0.2-0.6-1.3-0.5-1.1 0-1.4 0.3-0.6 0.6z"/>
		<path class="s0" d="m599.5 496c-0.3 0.5 0.1 1 1 1 0.9 0 1.3-0.5 1-1-0.3-0.6-0.8-1-1-1-0.2 0-0.7 0.4-1 1z"/>
		<path class="s0" d="m620.9 567c-5 2.6-6 4.1-6.6 10.3-0.8 7.9 0.3 12.3 4.2 16.6 6.2 6.9 15.4 7.5 22.5 1.5 4.4-3.8 6.3-8 6.2-14.1 0-6.3-2.3-10.8-7.2-14-4.3-3-13.8-3.1-19.1-0.3z"/>
		<path fill-rule="evenodd" class="s0" d="m523 782.1c17.9-0.1 29.5 4.4 41.4 16.2 10.9 10.8 16.6 24.1 16.6 38.9 0 15.9-4.6 26.5-17 38.9-7.3 7.3-9.6 9-16.2 11.8-13.6 5.5-24.2 6.4-38.4 3.2-11.3-2.5-16.7-5.5-24.9-13.6-9.2-9-13.8-18.1-16.1-31.4-1.7-10.3-1.4-14.6 1.8-25.6 2.4-8.5 4.7-12.3 11.3-19.4 8.7-9.4 17.4-15 26.7-17.5 2.9-0.8 9.6-1.5 14.8-1.5zm-8 5.8c-12.5 1.8-30.2 14.8-36.2 26.6-4.2 8.2-6.2 22.1-4.4 30l0.7 3h34.4l-0.3-19.4c-0.3-17.4-0.6-19.8-2.3-21.9-2.6-3.4-2.4-5.9 1-9.3 4.8-4.8 10.5-3.3 11.8 3.1 0.5 2.7 0.6 2.8 9.7 3.2 11.2 0.5 14.1 2 15.1 8l0.7 4 9.9-0.7c5.4-0.3 9.9-0.4 9.9-0.1 0 0.2-1.8 2.6-4 5.1-2.2 2.5-4 5.3-4 6.1 0 0.7 1.6 3.1 3.5 5.3 1.9 2.1 3.5 4.8 3.5 6 0 2.2-0.1 2.2-14.5 1.6-8-0.3-14.9-0.5-15.5-0.5-0.5 0-1.3-1.5-1.8-3.3-0.9-3.2-0.9-3.2-6.7-3-8.7 0.3-8.6 0.2-8.3 8.5l0.3 7.2 28.5 0.1h28.5l0.3-6.6c0.6-13.2-4.4-28.3-12.1-36.6-5.5-6-14.8-11.9-22.1-14.2-7.4-2.3-18.2-3.2-25.6-2.2zm-2.4 12.7c-2 2-2 3.3 0 4.1 2 0.7 6.7-1.4 5.9-2.7-1.4-2.3-4.3-3-5.9-1.4zm16.9 9.6h-3.5c-6.1-0.1-8 1.2-7.9 5.5l0.1 3.8 0.9-3.2c1.1-3.7 2-4.4 6.9-5.4zm-10.1 12.9c-1.1 0-1.4 0.3-0.6 0.6 0.7 0.3 1.6 0.2 1.9-0.1 0.4-0.3-0.2-0.6-1.3-0.5zm-25.9 30.9h-16.6l0.3 2.2c0.3 2.3 0.6 2.3 16.1 2.6 9.4 0.1 15.7-0.1 15.7-0.7 0-0.5 0.3-1.6 0.6-2.5 0.5-1.4-1.3-1.6-16.1-1.6zm40.5 0h-16v6.3l15.8-0.6c8.6-0.4 20.2-0.7 25.6-0.7 12.3 0 11.9-1.7-0.7-2.6-4.8-0.4-8.7-1.1-8.7-1.5 0-0.5-7.2-0.9-16-0.9zm-24 11h-13.5c-13.9 0-14.5 0.2-12.5 4.1 1 1.7 2.2 1.9 13.5 1.9h12.5zm12.3 0c-5 0-5.3 0.1-5.3 2.5v2.5h11.8c15.7 0 27.9-1 25.8-2.2-0.8-0.5-7.3-1.3-14.3-1.8-7.1-0.5-15.2-1-18-1zm-12.6 12h-8.6c-7.4 0-8.3 0.2-7.1 1.4 1.7 1.6 10.1 4.6 12.9 4.6 1.3 0 2-0.9 2.3-3zm8 0.6c-0.4 0.4-0.7 2-0.7 3.6 0 2.4 0.4 2.8 2.9 2.8 7.5 0 29.3-4.3 27.9-5.5-0.8-0.6-29.5-1.5-30.1-0.9z"/>
		<path class="s0" d="m557.2 916.2c-1.5 1.5-1.6 7.2-0.2 9.9 2.6 4.7 10 0.9 10-5.2 0-4.7-6.6-7.9-9.8-4.7z"/>
	</g>
</svg>